<?xml version="1.0" standalone="no"?>
<!DOCTYPE svg PUBLIC "-//W3C//DTD SVG 20010904//EN"
 "http://www.w3.org/TR/2001/REC-SVG-20010904/DTD/svg10.dtd">
<svg version="1.0" xmlns="http://www.w3.org/2000/svg"
 width="512.000000pt" height="512.000000pt" viewBox="0 0 512.000000 512.000000"
 preserveAspectRatio="xMidYMid meet">
<metadata>
Created by potrace 1.11, written by Peter Selinger 2001-2013
</metadata>
<g transform="translate(0.000000,512.000000) scale(0.100000,-0.100000)"
fill="#000000" stroke="none">
<path d="M1908 3991 c-14 -11 -35 -42 -46 -70 -20 -44 -25 -49 -59 -53 -44 -6
-111 2 -283 32 -188 33 -288 16 -357 -63 -55 -63 -57 -152 -5 -216 31 -38 57
-50 75 -32 7 7 -1 22 -26 51 -30 33 -37 48 -37 83 0 24 8 56 20 74 46 76 154
90 385 48 83 -14 174 -25 203 -23 l52 3 -5 -80 c-14 -196 -15 -203 -38 -209
-12 -3 -44 -6 -70 -6 -34 0 -49 -4 -54 -16 -9 -25 14 -32 78 -27 68 7 69 5 44
-90 -31 -120 -82 -189 -166 -226 -129 -57 -313 -23 -398 74 -19 22 -38 35 -46
31 -56 -21 59 -126 174 -160 79 -23 207 -21 275 5 106 39 180 140 212 290 l17
77 51 6 c28 3 135 6 239 6 l187 0 0 -85 c0 -150 51 -335 91 -335 24 0 24 5 -6
93 -23 70 -45 208 -45 289 l0 37 83 3 c74 3 82 5 82 23 0 18 -8 20 -81 23
l-80 3 8 77 c11 103 42 192 79 230 26 26 39 32 75 32 48 0 66 16 39 37 -28 20
-78 16 -116 -10 -67 -45 -101 -123 -122 -279 l-11 -88 -91 0 c-49 0 -155 -3
-234 -7 l-143 -6 6 114 c11 180 11 181 61 212 54 35 77 69 73 110 -3 28 -7 32
-34 35 -19 2 -40 -5 -56 -17z m35 -53 c-18 -31 -43 -49 -43 -30 0 14 40 62 52
62 5 0 2 -14 -9 -32z"/>
<path d="M3034 3969 c-34 -12 -63 -61 -86 -146 -19 -68 -22 -105 -22 -295 -1
-119 -5 -216 -10 -215 -5 1 -24 -23 -42 -54 -45 -76 -85 -109 -133 -109 -20 0
-46 7 -57 14 -18 14 -18 16 19 46 70 59 87 131 42 175 -75 76 -179 -39 -146
-163 45 -164 228 -156 314 14 l23 45 17 -55 c30 -94 94 -142 156 -117 62 26
164 168 140 197 -17 20 -32 8 -63 -51 -71 -137 -147 -138 -191 -4 l-17 50 36
73 c83 171 116 292 117 424 0 133 -35 195 -97 171z m36 -54 c19 -23 24 -135
10 -212 -14 -73 -61 -215 -90 -273 l-18 -35 -8 50 c-16 108 24 404 62 463 17
26 27 28 44 7z m-352 -591 c3 -35 -38 -94 -65 -94 -13 0 -15 10 -11 50 6 57
22 82 52 78 15 -2 22 -11 24 -34z"/>
<path d="M3364 3969 c-67 -25 -104 -158 -111 -399 -6 -196 9 -310 50 -390 27
-54 79 -87 120 -76 32 8 94 60 117 99 l17 27 12 -39 c22 -77 96 -107 174 -73
25 11 50 30 56 41 8 13 22 21 39 21 63 1 152 67 152 114 0 27 -38 18 -56 -13
-18 -30 -52 -51 -83 -51 -16 0 -19 10 -23 64 -4 74 -25 106 -69 106 -39 0 -59
-24 -59 -73 0 -44 29 -103 55 -113 20 -8 19 -20 -5 -44 -29 -29 -90 -27 -118
3 -41 43 -22 140 32 165 34 15 34 42 0 42 -16 0 -38 -12 -57 -32 -18 -18 -38
-33 -45 -34 -17 -3 -13 2 -48 -62 -71 -134 -145 -134 -189 -1 l-17 50 36 73
c83 171 116 292 117 424 0 133 -35 195 -97 171z m36 -54 c19 -23 24 -135 10
-212 -14 -73 -61 -215 -90 -273 l-18 -35 -8 50 c-16 108 24 404 62 463 17 26
27 28 44 7z m379 -586 c6 -18 11 -43 11 -57 0 -24 -1 -24 -19 -8 -32 29 -39
96 -11 96 4 0 13 -14 19 -31z"/>
<path d="M1038 2551 c-14 -11 -35 -42 -46 -70 -20 -44 -25 -49 -59 -53 -44 -6
-111 2 -283 32 -188 33 -288 16 -357 -63 -55 -63 -57 -152 -5 -216 31 -38 57
-50 75 -32 7 7 -1 22 -26 51 -30 33 -37 48 -37 83 0 24 8 56 20 74 46 76 154
90 385 48 83 -14 174 -25 203 -23 l52 3 -5 -80 c-14 -196 -15 -203 -38 -209
-12 -3 -44 -6 -70 -6 -34 0 -49 -4 -54 -16 -9 -25 14 -32 78 -27 68 7 69 5 44
-90 -31 -120 -82 -189 -166 -226 -129 -57 -313 -23 -398 74 -19 22 -38 35 -46
31 -56 -21 59 -126 174 -160 79 -23 207 -21 275 5 106 39 180 140 212 290 l17
77 51 6 c28 3 135 6 239 6 l187 0 0 -85 c0 -150 51 -335 91 -335 24 0 24 5 -6
93 -23 70 -45 208 -45 289 l0 37 83 3 c74 3 82 5 82 23 0 18 -8 20 -81 23
l-80 3 8 77 c11 103 42 192 79 230 26 26 39 32 75 32 48 0 66 16 39 37 -28 20
-78 16 -116 -10 -67 -45 -101 -123 -122 -279 l-11 -88 -91 0 c-49 0 -155 -3
-234 -7 l-143 -6 6 114 c11 180 11 181 61 212 54 35 77 69 73 110 -3 28 -7 32
-34 35 -19 2 -40 -5 -56 -17z m35 -53 c-18 -31 -43 -49 -43 -30 0 14 40 62 52
62 5 0 2 -14 -9 -32z"/>
<path d="M3822 2529 c-52 -19 -82 -162 -82 -385 0 -139 -10 -275 -19 -269 -12
7 -28 -9 -45 -43 -31 -60 -85 -112 -118 -112 -24 0 -32 6 -44 35 -7 19 -14 45
-14 58 0 31 -23 53 -37 35 -6 -7 -13 -25 -17 -40 -9 -38 -54 -88 -80 -88 -33
0 -46 19 -46 68 0 51 22 93 60 116 35 20 63 20 99 1 31 -15 41 -12 41 16 0 10
-15 23 -41 33 -55 22 -111 7 -158 -42 -19 -21 -39 -37 -44 -37 -6 0 -22 -22
-37 -48 -34 -62 -87 -115 -128 -126 -37 -11 -37 -12 -17 25 22 43 19 72 -20
153 -21 43 -35 88 -35 111 0 45 -22 69 -45 50 -10 -8 -14 -28 -13 -59 2 -46
-18 -115 -31 -107 -12 8 -27 -8 -46 -44 -30 -58 -65 -98 -95 -109 -46 -16 -62
7 -60 88 2 100 1 108 -16 125 -42 43 -110 4 -162 -91 -51 -94 -54 -96 -47 -26
8 84 -11 133 -54 133 -41 0 -73 -31 -126 -125 l-46 -80 2 102 c2 110 -6 133
-46 133 -26 0 -55 -31 -75 -80 -7 -17 -19 -29 -28 -28 -9 2 -25 -16 -41 -45
-38 -69 -77 -107 -111 -107 -47 0 -60 30 -60 137 0 85 -2 93 -19 93 -16 0 -21
-9 -26 -57 -9 -89 -23 -130 -52 -152 -34 -28 -59 -26 -79 4 -20 31 -13 100 16
159 14 28 16 43 9 52 -39 47 -94 -108 -75 -210 5 -27 16 -43 39 -57 42 -26 81
-18 124 23 18 18 33 26 33 20 0 -7 11 -24 25 -37 52 -53 133 -22 193 75 20 32
44 59 53 60 9 0 24 18 34 40 10 22 25 46 33 53 13 11 14 -2 8 -109 -6 -101 -5
-123 8 -133 28 -23 52 -2 102 90 54 101 88 144 105 133 8 -5 10 -40 7 -111 -3
-75 -1 -108 8 -121 20 -27 43 -5 99 97 93 172 120 181 120 43 1 -82 3 -94 25
-117 49 -52 125 -22 193 75 21 30 44 56 51 58 7 2 20 17 28 35 l16 32 21 -45
c11 -25 21 -57 21 -72 0 -35 -27 -62 -54 -53 -68 21 -78 17 -56 -24 12 -23 80
-51 123 -51 50 1 109 33 155 85 27 31 42 42 42 31 0 -31 29 -73 58 -85 38 -16
76 -6 111 29 l28 28 27 -34 c30 -38 67 -44 115 -19 31 15 78 71 104 120 14 27
15 7 19 -280 4 -271 6 -315 22 -353 48 -113 153 -68 172 75 13 98 -34 257
-102 350 -15 21 -14 22 28 44 23 12 69 48 100 81 35 35 58 52 58 43 0 -30 29
-72 58 -84 38 -16 76 -6 111 29 l28 28 27 -34 c30 -38 67 -44 115 -19 31 16
82 75 102 118 7 15 20 27 31 27 13 0 21 12 30 45 12 43 14 46 43 43 l30 -3 -4
-92 c-3 -91 -3 -93 27 -123 64 -64 155 -27 224 90 21 35 35 67 32 72 -13 21
-41 5 -62 -36 -27 -50 -77 -101 -109 -111 -17 -4 -29 0 -48 19 -24 24 -25 28
-19 114 7 86 6 90 -17 105 -13 10 -35 17 -49 17 -21 0 -28 7 -40 43 -11 30
-21 42 -35 42 -25 0 -65 -59 -65 -97 0 -23 5 -30 28 -34 24 -5 28 -10 24 -30
-2 -14 -11 -24 -21 -24 -10 0 -25 -15 -34 -35 -28 -59 -86 -115 -119 -115 -24
0 -32 6 -44 35 -7 19 -14 45 -14 58 0 31 -23 53 -37 35 -6 -7 -13 -25 -17 -40
-9 -38 -54 -88 -80 -88 -33 0 -46 19 -46 68 0 51 22 93 60 116 35 20 63 20 99
1 31 -15 41 -12 41 16 0 10 -15 23 -41 33 -56 23 -112 7 -160 -45 -20 -21 -41
-39 -47 -39 -6 0 -19 -14 -28 -31 -32 -62 -160 -179 -196 -179 -4 0 -8 44 -8
97 0 94 1 100 44 188 24 49 56 128 72 175 24 75 27 101 28 217 1 117 -1 134
-19 159 -25 33 -53 44 -83 33z m47 -57 c32 -61 19 -229 -30 -375 -56 -170 -61
-167 -54 43 7 246 25 350 59 350 9 0 20 -8 25 -18z m611 -487 c0 -8 -4 -15
-10 -15 -5 0 -7 7 -4 15 4 8 8 15 10 15 2 0 4 -7 4 -15z m-664 -460 c59 -101
82 -253 50 -330 -18 -41 -49 -47 -68 -12 -13 22 -26 387 -14 387 3 0 17 -20
32 -45z"/>
</g>
</svg>
